<svg width="20" height="20" viewBox="0 0 20 20" fill="none" xmlns="http://www.w3.org/2000/svg">
<g clip-path="url(#clip0_55643_249)">
<path d="M0 7.1665H20V12.8332H0V7.1665Z" fill="#EEEEEE"/>
<path d="M20 15.0001C20 15.5894 19.7659 16.1547 19.3491 16.5714C18.9324 16.9881 18.3671 17.2223 17.7778 17.2223H2.22222C1.63285 17.2223 1.06762 16.9881 0.650874 16.5714C0.234126 16.1547 0 15.5894 0 15.0001V12.7778H20V15.0001Z" fill="#171796"/>
<path d="M17.7778 2.77783H2.22222C1.63285 2.77783 1.06762 3.01196 0.650874 3.42871C0.234126 3.84545 0 4.41068 0 5.00005L0 7.22228H20V5.00005C20 4.41068 19.7659 3.84545 19.3491 3.42871C18.9324 3.01196 18.3671 2.77783 17.7778 2.77783Z" fill="#D52B1E"/>
<path d="M6.33789 4.13135V10.5391C6.33789 11.5103 6.72367 12.4416 7.41037 13.1283C8.09706 13.815 9.02842 14.2008 9.99956 14.2008C10.9707 14.2008 11.9021 13.815 12.5887 13.1283C13.2754 12.4416 13.6612 11.5103 13.6612 10.5391V4.13135H6.33789Z" fill="#D52B1E"/>
<path d="M7.91677 9.99995H9.30566V11.3888H7.91677V9.99995ZM9.30566 11.3888H10.6945V12.7777H9.30566V11.3888ZM9.30566 8.61106H10.6945V9.99995H9.30566V8.61106ZM10.6945 9.99995H12.0834V11.3888H10.6945V9.99995ZM10.6945 7.22217H12.0834V8.61106H10.6945V7.22217ZM12.0834 8.61106H13.384V9.99995H12.0834V8.61106ZM7.91677 7.22217H9.30566V8.61106H7.91677V7.22217ZM12.0834 12.7777H12.5307C12.8833 12.3794 13.1372 11.9036 13.2718 11.3888H12.0834V12.7777ZM10.6945 12.7777V13.8505C11.2011 13.7426 11.6763 13.5201 12.0834 13.1999V12.7777H10.6945ZM7.91677 12.7777V11.3888H6.72843C6.86302 11.9036 7.11691 12.3794 7.46954 12.7777H7.91677ZM6.61621 8.61106H7.91677V9.99995H6.61621V8.61106ZM7.91677 12.7777V13.1999C8.32393 13.5201 8.79906 13.7426 9.30566 13.8505V12.7777H7.91677Z" fill="white"/>
<path d="M13.754 4.52257L12.644 4.96202L11.9062 4.02757L10.8901 4.65313L10.0001 3.86035L9.10958 4.65368L8.09513 4.02702L7.35569 4.96257L6.24736 4.52202L5.62402 5.67757L6.36347 7.26757L6.46125 7.22202C6.89458 7.02035 7.3518 6.85424 7.81847 6.72869L7.84069 6.72257C8.29991 6.59922 8.76884 6.51539 9.24236 6.47202L9.27791 6.46868C9.66958 6.43535 10.3312 6.43535 10.7229 6.46868L10.7551 6.47146C11.2129 6.51257 11.6874 6.59702 12.164 6.72313L12.1824 6.72813C12.6468 6.85313 13.1035 7.01924 13.5385 7.22202L13.6357 7.26757L14.3751 5.67813L13.754 4.52257Z" fill="#171796"/>
<path d="M9.24315 4.82281L9.36592 6.2467C9.54926 6.23226 9.77092 6.21837 9.99981 6.21837C10.2287 6.21837 10.4504 6.23226 10.6337 6.2467L10.7565 4.82281L9.99981 4.14893L9.24315 4.82281ZM13.6548 4.79337L12.7115 5.16726L12.3404 6.55004C12.7465 6.66448 13.1459 6.81004 13.5315 6.98281L14.1348 5.68504L13.6548 4.79337ZM6.34537 4.79226L5.86426 5.68448L6.46815 6.98226C6.85148 6.81004 7.25092 6.66448 7.65926 6.54948L7.28704 5.16615L6.34537 4.79226Z" fill="#0193DD"/>
</g>
<defs>
<clipPath id="clip0_55643_249">
<rect width="20" height="20" fill="white"/>
</clipPath>
</defs>
</svg>
