<svg width="150" height="18" viewBox="0 0 150 18" fill="none" xmlns="http://www.w3.org/2000/svg">
<g clip-path="url(#clip0_55643_888)">
<path d="M56.8952 5.59868H43.6325V8.02911H56.8952C56.8645 8.12469 56.9914 8.23977 56.9914 8.27293V12.1604C56.9914 12.1702 56.8568 12.3067 56.8472 12.3067H43.6325V14.7372H56.8952V19.1104H39.4033C39.4341 19.0148 39.3071 18.8997 39.3071 18.8666V1.46734C39.3071 1.45759 39.4418 1.32104 39.4514 1.32104H56.8472C56.8568 1.32104 56.9914 1.45564 56.9914 1.46734V5.35485C56.9914 5.38606 56.8645 5.5031 56.8952 5.59868Z" fill="#FEFEFF"/>
<path d="M147.479 1.32104C148.41 1.45368 149.535 2.53431 149.806 3.43743C150.056 4.26838 150.033 8.61623 149.919 9.62078C149.785 10.8009 148.635 12.0961 147.456 12.2814C147.104 12.336 146.742 12.258 146.419 12.3048C146.286 12.3243 146.254 12.2502 146.277 12.4511L149.641 19.1104H145.171L141.423 12.3067H137.145V18.8685C137.145 18.8997 137.018 19.0168 137.049 19.1123H132.916V1.32104H147.477H147.479ZM145.7 5.59868H137.147V8.02911H145.7V5.59868Z" fill="#FEFEFF"/>
<path d="M105.719 7.15325H101.586V5.59863H91.8792V14.7352H101.586V13.1806H105.719C106.077 15.6676 105.905 18.7124 102.872 19.0986C98.9548 18.9114 94.7487 19.3893 90.8656 19.1142C88.8905 18.9757 87.7711 17.7293 87.6461 15.7612C87.4057 12.0083 87.825 7.9842 87.6634 4.20202C87.7981 2.77809 88.9385 1.45169 90.3868 1.31905C94.414 0.946489 98.9952 1.60969 103.08 1.31905C105.934 1.79304 106.057 4.79109 105.719 7.1552V7.15325Z" fill="#FEFEFF"/>
<path d="M17.5881 5.59868H4.22923V8.02911H17.5881C17.5573 8.12469 17.6843 8.23977 17.6843 8.27293V12.1604C17.6843 12.1702 17.5497 12.3067 17.54 12.3067H4.37347C4.36385 12.3067 4.22923 12.4413 4.22923 12.453V19.1104H0.144244C0.134627 19.1104 0 18.9758 0 18.9641V1.46734C0 1.45759 0.134627 1.32104 0.144244 1.32104H17.54C17.5497 1.32104 17.6843 1.45564 17.6843 1.46734V5.35485C17.6843 5.38606 17.5573 5.5031 17.5881 5.59868Z" fill="#FEFEFF"/>
<path d="M64.9692 1.32104C66.1366 3.23067 67.4482 5.05446 68.7657 6.85876L72.7064 1.32104H77.753L71.7294 10.2138L77.753 19.1084H72.7064L68.7657 13.4732L64.8249 19.1084H59.9226C59.911 19.1084 59.7302 18.968 59.8245 18.9153L65.8173 10.1357L59.7783 1.32104H64.9672H64.9692Z" fill="#FEFEFF"/>
<path d="M108.746 19.1084L116.72 1.41466L121.532 1.31323L121.682 1.3815L129.992 18.9114C130.077 18.9719 129.902 19.1104 129.888 19.1104H125.419L119.22 6.37695L113.214 19.1104H108.744L108.746 19.1084Z" fill="#FEFEFF"/>
<path d="M24.7004 1.32104V14.7352H36.3784C36.388 14.7352 36.5227 14.8698 36.5227 14.8815V18.9641C36.5227 18.9738 36.388 19.1104 36.3784 19.1104H20.4731V1.32104H24.7024H24.7004Z" fill="#FEFEFF"/>
<path d="M80.6343 19.1084V1.32104H84.7193C84.7289 1.32104 84.8635 1.45564 84.8635 1.46734V18.9621C84.8635 18.9719 84.7289 19.1084 84.7193 19.1084H80.6343Z" fill="#FEFEFF"/>
</g>
<defs>
<clipPath id="clip0_55643_888">
<rect width="150" height="18" fill="white"/>
</clipPath>
</defs>
</svg>
